<?xml version="1.0" encoding="UTF-8"?>
<svg id="Layer_1" xmlns="http://www.w3.org/2000/svg" version="1.1" viewBox="0 0 154.3 154.4">
  <!-- Generator: Adobe Illustrator 29.2.1, SVG Export Plug-In . SVG Version: 2.1.0 Build 116)  -->
  <defs>
    <style>
      .st0 {
        fill: coral;
      }

      .st1 {
        fill: #fff8e1;
        stroke: #b0b0b0;
        stroke-miterlimit: 10;
        stroke-width: 4px;
      }
    </style>
  </defs>
  <ellipse class="st1" cx="77.1" cy="77.2" rx="75.1" ry="75.2"/>
  <path class="st0" d="M69.9,129.1h-1.9c-1.4,0-2.7-1.1-3.5-3l-24.7-60.7c-2.3-5.6-7.7-3-7.7,3.7v53.3c0,3.7-1.9,6.8-4.2,6.8h0c-2.3,0-4.2-3-4.2-6.8V32c0-3.7,1.9-6.8,4.2-6.8h1.9c1.4,0,2.7,1.1,3.5,3l24.7,60.6c2.3,5.6,7.7,3,7.7-3.7v-53.2c0-3.7,1.9-6.8,4.2-6.8h0c2.3,0,4.2,3,4.2,6.8v90.4c0,3.7-1.9,6.8-4.2,6.8h0Z"/>
  <path class="st0" d="M95.5,125.6c-4.2-2.4-7.5-5.7-9.9-9.9-1-1.8-1.8-3.7-2.4-5.8-1.3-4.3,1.3-8.9,4.9-8.9h.8c2.3,0,4.2,1.9,5,4.6.8,2.8,2.1,5.3,3.9,7.5,2.7,3.3,6.7,4.9,11.9,4.9s8.9-1.6,11.8-4.7,4.3-7.2,4.3-12.2-.9-7-2.5-9.5-3.8-4.3-6.3-5.5-6-2.6-10.3-4.1c-5.3-1.8-9.5-3.5-12.7-5.2-3.2-1.8-5.9-4.5-8.2-8.2-2.3-3.7-3.4-8.8-3.4-15.1s1.1-10.4,3.3-14.7c2.2-4.3,5.4-7.6,9.4-9.9s8.7-3.5,13.9-3.5c7.5,0,13.7,2.4,18.5,7.1,2.7,2.6,4.7,5.8,6.1,9.4,1.7,4.4-.9,9.6-4.7,9.6h-.8c-2.1,0-4-1.7-4.9-4.1-.8-2.2-2.1-4.3-3.9-6.1-2.8-3-6.6-4.4-11.3-4.4s-8,1.4-10.7,4.3c-2.8,2.9-4.1,6.9-4.1,12s.8,6.7,2.5,9c1.6,2.3,3.7,4.1,6.1,5.3,2.4,1.2,5.8,2.6,10.2,4.1,5.3,1.9,9.6,3.7,12.8,5.5,3.2,1.8,6,4.6,8.3,8.3s3.5,8.8,3.5,15.2-1,9.6-3.1,14c-2.1,4.4-5.1,7.9-9.2,10.6s-8.9,4.1-14.4,4.1-10-1.2-14.2-3.6Z"/>
</svg>